<mxfile host="Electron" modified="2023-08-30T02:11:21.128Z" agent="Mozilla/5.0 (Windows NT 10.0; Win64; x64) AppleWebKit/537.36 (KHTML, like Gecko) draw.io/21.5.1 Chrome/112.0.5615.204 Electron/24.6.0 Safari/537.36" etag="q54EanFuWvjBVw6uCvvi" version="21.5.1" type="device">
  <diagram name="第 1 页" id="Q5JdQTRWaMcOKz5ExAHO">
    <mxGraphModel dx="1036" dy="606" grid="1" gridSize="10" guides="1" tooltips="1" connect="1" arrows="1" fold="1" page="1" pageScale="1" pageWidth="827" pageHeight="1169" math="0" shadow="0">
      <root>
        <mxCell id="0" />
        <mxCell id="1" parent="0" />
        <mxCell id="7iR_AsRuz_JYYwlTW-By-2" value="" style="rounded=0;whiteSpace=wrap;html=1;" parent="1" vertex="1">
          <mxGeometry x="50" y="30" width="680" height="420" as="geometry" />
        </mxCell>
        <mxCell id="xuO2WjomxNoXxt_UWbL7-1" value="" style="ellipse;html=1;shape=startState;fillColor=#000000;strokeColor=#ff0000;" parent="1" vertex="1">
          <mxGeometry x="120" y="150" width="30" height="30" as="geometry" />
        </mxCell>
        <mxCell id="xuO2WjomxNoXxt_UWbL7-3" value="管理者ログイン画面" style="html=1;whiteSpace=wrap;" parent="1" vertex="1">
          <mxGeometry x="220" y="140" width="120" height="50" as="geometry" />
        </mxCell>
        <mxCell id="xuO2WjomxNoXxt_UWbL7-5" value="講座一覧画面" style="html=1;whiteSpace=wrap;" parent="1" vertex="1">
          <mxGeometry x="480" y="140" width="110" height="50" as="geometry" />
        </mxCell>
        <mxCell id="xuO2WjomxNoXxt_UWbL7-6" value="講座編集画面" style="html=1;whiteSpace=wrap;" parent="1" vertex="1">
          <mxGeometry x="480" y="270" width="110" height="50" as="geometry" />
        </mxCell>
        <mxCell id="xuO2WjomxNoXxt_UWbL7-9" value="" style="ellipse;html=1;shape=endState;fillColor=#000000;strokeColor=#ff0000;" parent="1" vertex="1">
          <mxGeometry x="520" y="400" width="30" height="30" as="geometry" />
        </mxCell>
        <mxCell id="xuO2WjomxNoXxt_UWbL7-10" value="" style="endArrow=classic;html=1;rounded=0;exitX=1;exitY=0.5;exitDx=0;exitDy=0;entryX=0;entryY=0.5;entryDx=0;entryDy=0;" parent="1" source="xuO2WjomxNoXxt_UWbL7-3" target="xuO2WjomxNoXxt_UWbL7-5" edge="1">
          <mxGeometry width="50" height="50" relative="1" as="geometry">
            <mxPoint x="390" y="340" as="sourcePoint" />
            <mxPoint x="440" y="290" as="targetPoint" />
          </mxGeometry>
        </mxCell>
        <mxCell id="xuO2WjomxNoXxt_UWbL7-11" value="" style="endArrow=classic;html=1;rounded=0;exitX=0.75;exitY=1;exitDx=0;exitDy=0;entryX=0.75;entryY=0;entryDx=0;entryDy=0;" parent="1" source="xuO2WjomxNoXxt_UWbL7-5" target="xuO2WjomxNoXxt_UWbL7-6" edge="1">
          <mxGeometry width="50" height="50" relative="1" as="geometry">
            <mxPoint x="410" y="340" as="sourcePoint" />
            <mxPoint x="550" y="260" as="targetPoint" />
            <Array as="points" />
          </mxGeometry>
        </mxCell>
        <mxCell id="xuO2WjomxNoXxt_UWbL7-12" value="" style="endArrow=classic;html=1;rounded=0;exitX=0.25;exitY=0;exitDx=0;exitDy=0;entryX=0.25;entryY=1;entryDx=0;entryDy=0;" parent="1" source="xuO2WjomxNoXxt_UWbL7-6" target="xuO2WjomxNoXxt_UWbL7-5" edge="1">
          <mxGeometry width="50" height="50" relative="1" as="geometry">
            <mxPoint x="410" y="340" as="sourcePoint" />
            <mxPoint x="460" y="290" as="targetPoint" />
          </mxGeometry>
        </mxCell>
        <mxCell id="xuO2WjomxNoXxt_UWbL7-15" value="" style="endArrow=classic;html=1;rounded=0;exitX=0.75;exitY=1;exitDx=0;exitDy=0;entryX=0.75;entryY=0;entryDx=0;entryDy=0;" parent="1" edge="1">
          <mxGeometry width="50" height="50" relative="1" as="geometry">
            <mxPoint x="534.5" y="320" as="sourcePoint" />
            <mxPoint x="534.5" y="400" as="targetPoint" />
          </mxGeometry>
        </mxCell>
        <mxCell id="xuO2WjomxNoXxt_UWbL7-18" value="" style="endArrow=classic;html=1;rounded=0;exitX=1;exitY=0.5;exitDx=0;exitDy=0;entryX=0;entryY=0.5;entryDx=0;entryDy=0;" parent="1" source="xuO2WjomxNoXxt_UWbL7-1" target="xuO2WjomxNoXxt_UWbL7-3" edge="1">
          <mxGeometry width="50" height="50" relative="1" as="geometry">
            <mxPoint x="390" y="340" as="sourcePoint" />
            <mxPoint x="440" y="290" as="targetPoint" />
          </mxGeometry>
        </mxCell>
        <mxCell id="xuO2WjomxNoXxt_UWbL7-19" value="管理者" style="text;html=1;align=center;verticalAlign=middle;resizable=0;points=[];autosize=1;strokeColor=none;fillColor=none;" parent="1" vertex="1">
          <mxGeometry x="105" y="110" width="60" height="30" as="geometry" />
        </mxCell>
        <mxCell id="xuO2WjomxNoXxt_UWbL7-20" value="[ログインボタン]&lt;br&gt;クリック" style="text;html=1;align=center;verticalAlign=middle;resizable=0;points=[];autosize=1;strokeColor=none;fillColor=none;" parent="1" vertex="1">
          <mxGeometry x="355" y="120" width="110" height="40" as="geometry" />
        </mxCell>
        <mxCell id="xuO2WjomxNoXxt_UWbL7-21" value="[戻るボタン]&lt;br&gt;クリック" style="text;html=1;align=center;verticalAlign=middle;resizable=0;points=[];autosize=1;strokeColor=none;fillColor=none;" parent="1" vertex="1">
          <mxGeometry x="414" y="213" width="90" height="40" as="geometry" />
        </mxCell>
        <mxCell id="xuO2WjomxNoXxt_UWbL7-22" value="[変更ボタン]&lt;br&gt;クリック" style="text;html=1;align=center;verticalAlign=middle;resizable=0;points=[];autosize=1;strokeColor=none;fillColor=none;" parent="1" vertex="1">
          <mxGeometry x="570" y="213" width="90" height="40" as="geometry" />
        </mxCell>
        <mxCell id="xuO2WjomxNoXxt_UWbL7-24" value="[変更ボタン]&lt;br&gt;クリック" style="text;html=1;align=center;verticalAlign=middle;resizable=0;points=[];autosize=1;strokeColor=none;fillColor=none;" parent="1" vertex="1">
          <mxGeometry x="440" y="340" width="90" height="40" as="geometry" />
        </mxCell>
        <mxCell id="xuO2WjomxNoXxt_UWbL7-26" value="講座一覧画面へ戻る" style="text;html=1;align=center;verticalAlign=middle;resizable=0;points=[];autosize=1;strokeColor=none;fillColor=none;" parent="1" vertex="1">
          <mxGeometry x="560" y="400" width="130" height="30" as="geometry" />
        </mxCell>
        <mxCell id="xuO2WjomxNoXxt_UWbL7-27" value="&lt;font style=&quot;font-size: 16px;&quot;&gt;講座情報編集機能&lt;/font&gt;" style="text;html=1;align=center;verticalAlign=middle;resizable=0;points=[];autosize=1;strokeColor=none;fillColor=none;" parent="1" vertex="1">
          <mxGeometry x="60" y="40" width="150" height="30" as="geometry" />
        </mxCell>
      </root>
    </mxGraphModel>
  </diagram>
</mxfile>
